<svg width="640" height="360" viewBox="0 0 640 360" fill="none" xmlns="http://www.w3.org/2000/svg">
  <defs>
    <linearGradient id="bg" x1="0" y1="0" x2="640" y2="360" gradientUnits="userSpaceOnUse">
      <stop stop-color="#191B24"/>
      <stop offset="1" stop-color="#18131D"/>
    </linearGradient>
    <radialGradient id="halo" cx="0" cy="0" r="1" gradientUnits="userSpaceOnUse" gradientTransform="translate(332 186) rotate(90) scale(156 214)">
      <stop stop-color="#F87171" stop-opacity="0.38"/>
      <stop offset="1" stop-color="#F87171" stop-opacity="0"/>
    </radialGradient>
    <linearGradient id="shield" x1="246" y1="78" x2="394" y2="290" gradientUnits="userSpaceOnUse">
      <stop stop-color="#FCA5A5"/>
      <stop offset="1" stop-color="#B91C1C"/>
    </linearGradient>
  </defs>

  <rect width="640" height="360" rx="24" fill="url(#bg)"/>
  <rect x="20" y="20" width="600" height="320" rx="18" stroke="rgba(255,255,255,0.10)"/>
  <ellipse cx="332" cy="182" rx="224" ry="146" fill="url(#halo)"/>

  <path d="M320 82L430 124V208C430 250 385 286 320 304C255 286 210 250 210 208V124L320 82Z" fill="url(#shield)" fill-opacity="0.84"/>
  <path d="M320 102L406 136V205C406 236 372 264 320 280C268 264 234 236 234 205V136L320 102Z" stroke="#FEE2E2" stroke-opacity="0.66" stroke-width="4"/>

  <g stroke="#FECACA" stroke-width="12" stroke-linecap="round">
    <path d="M274 228L306 186"/>
    <path d="M320 230L352 174"/>
    <path d="M366 232L392 190"/>
  </g>

  <text x="44" y="62" fill="#FEE2E2" font-size="22" font-family="Sora, sans-serif" font-weight="700">IronClaw</text>
  <text x="44" y="88" fill="#FECACA" font-size="14" font-family="IBM Plex Mono, monospace">hardened policy defaults</text>
</svg>
