<svg width="640" height="360" viewBox="0 0 640 360" fill="none" xmlns="http://www.w3.org/2000/svg">
  <defs>
    <linearGradient id="bg" x1="0" y1="0" x2="640" y2="360" gradientUnits="userSpaceOnUse">
      <stop stop-color="#16171B"/>
      <stop offset="1" stop-color="#111827"/>
    </linearGradient>
    <linearGradient id="line" x1="92" y1="86" x2="548" y2="286" gradientUnits="userSpaceOnUse">
      <stop stop-color="#FCD34D"/>
      <stop offset="1" stop-color="#F59E0B"/>
    </linearGradient>
  </defs>

  <rect width="640" height="360" rx="24" fill="url(#bg)"/>
  <rect x="20" y="20" width="600" height="320" rx="18" stroke="rgba(255,255,255,0.10)"/>

  <g opacity="0.18" stroke="#FCD34D">
    <path d="M80 116H560"/>
    <path d="M80 160H560"/>
    <path d="M80 204H560"/>
    <path d="M80 248H560"/>
    <path d="M140 88V276"/>
    <path d="M220 88V276"/>
    <path d="M300 88V276"/>
    <path d="M380 88V276"/>
    <path d="M460 88V276"/>
    <path d="M540 88V276"/>
  </g>

  <g stroke="url(#line)" stroke-width="10" stroke-linecap="round">
    <path d="M180 246L230 198L282 228L332 176L384 206L438 150"/>
    <path d="M206 266L257 220L309 248L359 194L410 224L466 168" opacity="0.74"/>
  </g>

  <g fill="#FBBF24">
    <circle cx="230" cy="198" r="6"/>
    <circle cx="332" cy="176" r="6"/>
    <circle cx="438" cy="150" r="6"/>
  </g>

  <text x="44" y="62" fill="#FEF3C7" font-size="22" font-family="Sora, sans-serif" font-weight="700">NanoClaw</text>
  <text x="44" y="88" fill="#FDE68A" font-size="14" font-family="IBM Plex Mono, monospace">lean terminal-first footprint</text>
</svg>
